<svg width="256" height="256" viewBox="0 0 256 256" fill="none" xmlns="http://www.w3.org/2000/svg">
  <defs>
    <linearGradient id="bg" x1="32" y1="32" x2="224" y2="224" gradientUnits="userSpaceOnUse">
      <stop stop-color="#0F172A" />
      <stop offset="0.52" stop-color="#0B253D" />
      <stop offset="1" stop-color="#111827" />
    </linearGradient>
    <linearGradient id="accent" x1="72" y1="76" x2="194" y2="200" gradientUnits="userSpaceOnUse">
      <stop stop-color="#34D399" />
      <stop offset="0.5" stop-color="#22D3EE" />
      <stop offset="1" stop-color="#818CF8" />
    </linearGradient>
    <linearGradient id="panel" x1="86" y1="86" x2="170" y2="176" gradientUnits="userSpaceOnUse">
      <stop stop-color="#F8FAFC" stop-opacity="0.95" />
      <stop offset="1" stop-color="#E2E8F0" stop-opacity="0.78" />
    </linearGradient>
    <radialGradient id="spark" cx="0" cy="0" r="1" gradientUnits="userSpaceOnUse" gradientTransform="translate(192 64) rotate(90) scale(18)">
      <stop stop-color="#F0FDFA" />
      <stop offset="1" stop-color="#34D399" stop-opacity="0" />
    </radialGradient>
    <filter id="shadow" x="8" y="8" width="240" height="240" filterUnits="userSpaceOnUse" color-interpolation-filters="sRGB">
      <feFlood flood-opacity="0" result="BackgroundImageFix" />
      <feColorMatrix in="SourceAlpha" type="matrix" values="0 0 0 0 0 0 0 0 0 0 0 0 0 0 0 0 0 0 127 0" result="hardAlpha" />
      <feOffset dy="12" />
      <feGaussianBlur stdDeviation="12" />
      <feComposite in2="hardAlpha" operator="out" />
      <feColorMatrix type="matrix" values="0 0 0 0 0.0208 0 0 0 0 0.051 0 0 0 0 0.1216 0 0 0 0.35 0" />
      <feBlend mode="normal" in2="BackgroundImageFix" result="effect1_dropShadow_1_2" />
      <feBlend mode="normal" in="SourceGraphic" in2="effect1_dropShadow_1_2" result="shape" />
    </filter>
  </defs>

  <g filter="url(#shadow)">
    <rect x="20" y="20" width="216" height="216" rx="60" fill="url(#bg)" />
    <rect x="20" y="20" width="216" height="216" rx="60" stroke="url(#accent)" stroke-opacity="0.28" />
    <circle cx="192" cy="64" r="18" fill="url(#spark)" />
    <path d="M74 96C74 82.7452 84.7452 72 98 72H158C171.255 72 182 82.7452 182 96V160C182 173.255 171.255 184 158 184H98C84.7452 184 74 173.255 74 160V96Z" fill="url(#accent)" fill-opacity="0.18" />
    <path d="M88 104C88 93.5066 96.5066 85 107 85H149C159.493 85 168 93.5066 168 104V152C168 162.493 159.493 171 149 171H107C96.5066 171 88 162.493 88 152V104Z" fill="url(#panel)" />
    <path d="M104 109H152" stroke="#0F172A" stroke-opacity="0.18" stroke-width="8" stroke-linecap="round" />
    <path d="M104 126H140" stroke="#0F172A" stroke-opacity="0.16" stroke-width="8" stroke-linecap="round" />
    <circle cx="128" cy="150" r="22" fill="#0F172A" fill-opacity="0.88" />
    <path d="M128 136V164" stroke="url(#accent)" stroke-width="8" stroke-linecap="round" />
    <path d="M114 150H142" stroke="url(#accent)" stroke-width="8" stroke-linecap="round" />
  </g>
</svg>
